<svg viewBox="0 0 960 160" xmlns="http://www.w3.org/2000/svg" font-family="ui-monospace, 'Cascadia Code', 'Source Code Pro', monospace">

  <!-- background -->
  <rect width="960" height="160" fill="#0d1117" rx="12"/>

  <!-- subtle grid lines -->
  <line x1="0" y1="80" x2="960" y2="80" stroke="#161b22" stroke-width="1"/>
  <line x1="480" y1="0" x2="480" y2="160" stroke="#161b22" stroke-width="1"/>

  <!-- left accent bar -->
  <rect x="20" y="30" width="3" height="100" rx="2" fill="#58a6ff" opacity="0.6"/>

  <!-- title -->
  <text x="44" y="76" fill="#e6edf3" font-size="36" font-weight="700" letter-spacing="-1">spectacular</text>

  <!-- tagline -->
  <text x="44" y="104" fill="#8b949e" font-size="13" letter-spacing="0.2">A spec-driven protocol for building with AI agents.</text>
  <text x="44" y="122" fill="#58a6ff" font-size="13" font-weight="600" letter-spacing="0.2">Agents build. Humans decide.</text>

  <!-- right — three layer chips -->
  <rect x="600" y="38" width="150" height="26" rx="6" fill="#161b22" stroke="#30363d" stroke-width="1"/>
  <text x="675" y="55" text-anchor="middle" fill="#8b949e" font-size="11" font-weight="500">conventions</text>

  <rect x="600" y="72" width="150" height="26" rx="6" fill="#161b22" stroke="#30363d" stroke-width="1"/>
  <text x="675" y="89" text-anchor="middle" fill="#3fb950" font-size="11" font-weight="500">/spectacular</text>

  <rect x="600" y="106" width="150" height="26" rx="6" fill="#161b22" stroke="#30363d" stroke-width="1"/>
  <text x="675" y="123" text-anchor="middle" fill="#d29922" font-size="11" font-weight="500">spectacular init</text>

  <!-- connector dots -->
  <circle cx="587" cy="51" r="2.5" fill="#30363d"/>
  <circle cx="587" cy="85" r="2.5" fill="#30363d"/>
  <circle cx="587" cy="119" r="2.5" fill="#30363d"/>
  <line x1="587" y1="51" x2="587" y2="119" stroke="#30363d" stroke-width="1"/>

  <!-- far right labels -->
  <text x="762" y="55" fill="#484f58" font-size="10">directory contract</text>
  <text x="762" y="89" fill="#484f58" font-size="10">agent skill</text>
  <text x="762" y="123" fill="#484f58" font-size="10">cli bootstrap</text>

  <!-- version chip -->
  <rect x="866" y="136" width="74" height="18" rx="4" fill="#161b22" stroke="#30363d" stroke-width="1"/>
  <text x="903" y="149" text-anchor="middle" fill="#484f58" font-size="10">v0.2.0</text>

</svg>
