<svg viewBox="0 0 860 300" xmlns="http://www.w3.org/2000/svg" font-family="ui-monospace, 'Cascadia Code', 'Source Code Pro', monospace">
  <rect width="860" height="300" fill="#0d1117" rx="12"/>

  <rect x="20" y="20" width="250" height="258" rx="8" fill="#161b22" stroke="#30363d" stroke-width="1.5"/>
  <rect x="20" y="20" width="250" height="36" rx="8" fill="#1c2128" stroke="#30363d" stroke-width="1.5"/>
  <rect x="20" y="44" width="250" height="12" fill="#1c2128"/>
  <text x="145" y="43" text-anchor="middle" fill="#8b949e" font-size="11" font-weight="600" letter-spacing="1">STRATEGY</text>
  <text x="36" y="82" fill="#e6edf3" font-size="11">PRD.md</text>
  <text x="36" y="97" fill="#484f58" font-size="10">product intent · outcomes</text>
  <text x="36" y="118" fill="#e6edf3" font-size="11">POLICY.md</text>
  <text x="36" y="133" fill="#484f58" font-size="10">practice layer · gates</text>
  <text x="36" y="154" fill="#e6edf3" font-size="11">roadmaps/index.md</text>
  <text x="36" y="169" fill="#484f58" font-size="10">what comes next</text>
  <text x="36" y="190" fill="#e6edf3" font-size="11">decisions/index.md</text>
  <text x="36" y="205" fill="#484f58" font-size="10">why we chose what we chose</text>
  <text x="36" y="226" fill="#e6edf3" font-size="11">AGENTS.md · config.yaml</text>
  <text x="36" y="241" fill="#484f58" font-size="10">context rules · project shape</text>

  <rect x="305" y="20" width="250" height="258" rx="8" fill="#161b22" stroke="#30363d" stroke-width="1.5"/>
  <rect x="305" y="20" width="250" height="36" rx="8" fill="#1c2128" stroke="#30363d" stroke-width="1.5"/>
  <rect x="305" y="44" width="250" height="12" fill="#1c2128"/>
  <text x="430" y="43" text-anchor="middle" fill="#3fb950" font-size="11" font-weight="600" letter-spacing="1">SYSTEM TRUTH</text>
  <text x="321" y="82" fill="#3fb950" font-size="10">▸</text>
  <text x="337" y="82" fill="#e6edf3" font-size="11">specs/index.md</text>
  <text x="337" y="97" fill="#484f58" font-size="10">always-on capability index</text>
  <text x="321" y="122" fill="#3fb950" font-size="10">▸</text>
  <text x="337" y="122" fill="#e6edf3" font-size="11">specs/auth.md</text>
  <text x="337" y="137" fill="#484f58" font-size="10">status: stable</text>
  <text x="321" y="162" fill="#d29922" font-size="10">▸</text>
  <text x="337" y="162" fill="#e6edf3" font-size="11">specs/billing.md</text>
  <text x="337" y="177" fill="#484f58" font-size="10">status: draft</text>
  <text x="321" y="213" fill="#484f58" font-size="10">Present tense. Canonical.</text>
  <text x="321" y="229" fill="#484f58" font-size="10">Snapshot before editing.</text>
  <text x="321" y="245" fill="#484f58" font-size="10">Updated from verified work.</text>

  <rect x="590" y="20" width="250" height="258" rx="8" fill="#161b22" stroke="#30363d" stroke-width="1.5"/>
  <rect x="590" y="20" width="250" height="36" rx="8" fill="#1c2128" stroke="#30363d" stroke-width="1.5"/>
  <rect x="590" y="44" width="250" height="12" fill="#1c2128"/>
  <text x="715" y="43" text-anchor="middle" fill="#58a6ff" font-size="11" font-weight="600" letter-spacing="1">ACTIVE WORK</text>
  <text x="606" y="82" fill="#e6edf3" font-size="11">requests/add-team-billing/</text>
  <text x="622" y="98" fill="#3fb950" font-size="10">● PLAN.md</text>
  <text x="708" y="98" fill="#484f58" font-size="10">active</text>
  <text x="622" y="113" fill="#484f58" font-size="10">TASKS.md · SESSION.md</text>
  <text x="606" y="140" fill="#e6edf3" font-size="11">requests/dark-mode/</text>
  <text x="622" y="156" fill="#8b949e" font-size="10">○ PLAN.md</text>
  <text x="708" y="156" fill="#484f58" font-size="10">planned</text>
  <text x="622" y="171" fill="#484f58" font-size="10">TASKS.md</text>
  <text x="606" y="205" fill="#e6edf3" font-size="11">memories/ · sessions/</text>
  <text x="622" y="221" fill="#484f58" font-size="10">durable learning · work log</text>
  <text x="606" y="247" fill="#484f58" font-size="10">Requests archive when complete.</text>

  <line x1="271" y1="145" x2="303" y2="145" stroke="#30363d" stroke-width="1.5" stroke-dasharray="4,3"/>
  <polygon points="299,140 309,145 299,150" fill="#30363d"/>
  <line x1="556" y1="145" x2="588" y2="145" stroke="#30363d" stroke-width="1.5" stroke-dasharray="4,3"/>
  <polygon points="584,140 594,145 584,150" fill="#30363d"/>
  <text x="430" y="293" text-anchor="middle" fill="#484f58" font-size="10">strategy changes rarely · specs describe what is true · requests carry what changes next</text>
</svg>
