<svg viewBox="0 0 860 280" xmlns="http://www.w3.org/2000/svg" font-family="ui-monospace, 'Cascadia Code', 'Source Code Pro', monospace">

  <!-- background -->
  <rect width="860" height="280" fill="#0d1117" rx="12"/>

  <!-- ── STRATEGY layer ── -->
  <rect x="20" y="20" width="240" height="240" rx="8" fill="#161b22" stroke="#30363d" stroke-width="1.5"/>
  <rect x="20" y="20" width="240" height="36" rx="8" fill="#1c2128" stroke="#30363d" stroke-width="1.5"/>
  <rect x="20" y="44" width="240" height="12" fill="#1c2128"/>
  <text x="140" y="43" text-anchor="middle" fill="#8b949e" font-size="11" font-weight="600" letter-spacing="1">STRATEGY</text>

  <text x="36" y="82" fill="#6e7681" font-size="10">📄</text>
  <text x="52" y="82" fill="#e6edf3" font-size="11">PRD.md</text>
  <text x="52" y="97" fill="#484f58" font-size="10">product intent · vision · goals</text>

  <text x="36" y="118" fill="#6e7681" font-size="10">📄</text>
  <text x="52" y="118" fill="#e6edf3" font-size="11">STACK.md</text>
  <text x="52" y="133" fill="#484f58" font-size="10">tech choices · rules</text>

  <text x="36" y="154" fill="#6e7681" font-size="10">📄</text>
  <text x="52" y="154" fill="#e6edf3" font-size="11">DECISIONS.md</text>
  <text x="52" y="169" fill="#484f58" font-size="10">why we chose what we chose</text>

  <text x="36" y="190" fill="#6e7681" font-size="10">📄</text>
  <text x="52" y="190" fill="#e6edf3" font-size="11">AGENTS.md</text>
  <text x="52" y="205" fill="#484f58" font-size="10">context loading rules</text>

  <text x="36" y="226" fill="#6e7681" font-size="10">⚙</text>
  <text x="52" y="226" fill="#e6edf3" font-size="11">config.yaml</text>
  <text x="52" y="241" fill="#484f58" font-size="10">project config · naming · agents</text>

  <!-- ── TRUTH layer ── -->
  <rect x="300" y="20" width="240" height="240" rx="8" fill="#161b22" stroke="#30363d" stroke-width="1.5"/>
  <rect x="300" y="20" width="240" height="36" rx="8" fill="#1c2128" stroke="#30363d" stroke-width="1.5"/>
  <rect x="300" y="44" width="240" height="12" fill="#1c2128"/>
  <text x="420" y="43" text-anchor="middle" fill="#3fb950" font-size="11" font-weight="600" letter-spacing="1">CURRENT TRUTH</text>

  <text x="316" y="82" fill="#3fb950" font-size="10">▸</text>
  <text x="332" y="82" fill="#e6edf3" font-size="11">current/auth/</text>
  <text x="332" y="97" fill="#484f58" font-size="10">status: stable</text>

  <text x="316" y="118" fill="#d29922" font-size="10">▸</text>
  <text x="332" y="118" fill="#e6edf3" font-size="11">current/billing/</text>
  <text x="332" y="133" fill="#484f58" font-size="10">status: draft</text>

  <text x="316" y="154" fill="#6e7681" font-size="10">▸</text>
  <text x="332" y="154" fill="#6e7681" font-size="11">current/editor/</text>
  <text x="332" y="169" fill="#484f58" font-size="10">status: deprecated</text>

  <text x="316" y="200" fill="#484f58" font-size="10">Canonical. Never overwritten.</text>
  <text x="316" y="216" fill="#484f58" font-size="10">Snapshot before editing.</text>
  <text x="316" y="232" fill="#484f58" font-size="10">Skill proposes updates on archive.</text>

  <!-- ── WORK layer ── -->
  <rect x="580" y="20" width="260" height="240" rx="8" fill="#161b22" stroke="#30363d" stroke-width="1.5"/>
  <rect x="580" y="20" width="260" height="36" rx="8" fill="#1c2128" stroke="#30363d" stroke-width="1.5"/>
  <rect x="580" y="44" width="260" height="12" fill="#1c2128"/>
  <text x="710" y="43" text-anchor="middle" fill="#58a6ff" font-size="11" font-weight="600" letter-spacing="1">ACTIVE WORK</text>

  <text x="596" y="76" fill="#e6edf3" font-size="11">requests/add-team-billing/</text>
  <text x="612" y="92" fill="#3fb950" font-size="10">● PLAN.md</text>
  <text x="700" y="92" fill="#484f58" font-size="10">status: active</text>
  <text x="612" y="107" fill="#484f58" font-size="10">  TASKS.md · SESSION.md</text>

  <text x="596" y="128" fill="#e6edf3" font-size="11">requests/dark-mode/</text>
  <text x="612" y="144" fill="#8b949e" font-size="10">○ PLAN.md</text>
  <text x="700" y="144" fill="#484f58" font-size="10">status: planned</text>
  <text x="612" y="159" fill="#484f58" font-size="10">  TASKS.md</text>

  <text x="596" y="182" fill="#e6edf3" font-size="11">memory/</text>
  <text x="612" y="198" fill="#484f58" font-size="10">lessons.md · failures.md</text>
  <text x="612" y="213" fill="#484f58" font-size="10">git-committed · team-visible</text>

  <text x="596" y="238" fill="#484f58" font-size="10">Temporary. Archived on completion.</text>

  <!-- ── connector arrows ── -->
  <line x1="261" y1="140" x2="298" y2="140" stroke="#30363d" stroke-width="1.5" stroke-dasharray="4,3"/>
  <polygon points="294,135 304,140 294,145" fill="#30363d"/>

  <line x1="541" y1="140" x2="578" y2="140" stroke="#30363d" stroke-width="1.5" stroke-dasharray="4,3"/>
  <polygon points="574,135 584,140 574,145" fill="#30363d"/>

  <!-- caption -->
  <text x="430" y="272" text-anchor="middle" fill="#484f58" font-size="10">strategy changes rarely · truth reflects current behavior · work is temporary and archived on completion</text>

</svg>
